# xmcd
#
# Track frame offsets: 
#        150
#        14936
#        26014
#        36269
#        46604
#        56665
#        69255
#        80389
#        89218
#        102625
#        113479
#        123904
#
# Disc length: 1776 seconds
#
# Revision: 0
# Processed by: cddbd v1.5.2PL0 Copyright (c) Steve Scherf et al.
# Submitted via: ExactAudioCopy v0.95b3
#
DISCID=9f06ee0c
DTITLE=Johnny Cash - Songbook (Volume 2)
DYEAR=2006
DGENRE=Country
TTITLE0=There Ain't No Good Chain Gang (with Waylon Jennings)
TTITLE1=Cry, Cry, Cry
TTITLE2=The Ways Of A Woman In Love
TTITLE3=Busted (with The Carter Family)
TTITLE4=Hey, Porter!
TTITLE5=Next In Line
TTITLE6=Oh Lonesome Me
TTITLE7=Katy Too
TTITLE8=Look At Them Beans
TTITLE9=Fool's Hall Of Fame
TTITLE10=You Win Again
TTITLE11=Down The Street To 301
EXTD=
EXTT0=
EXTT1=
EXTT2=
EXTT3=
EXTT4=
EXTT5=
EXTT6=
EXTT7=
EXTT8=
EXTT9=
EXTT10=
EXTT11=
PLAYORDER=
